# xmcd
# 
# Track frame offsets:
#     150
#     7194
#     13048
#     23029
#     31788
#     41779
#     49237
#     58165
#     65552
#     72987
# 
# Disc length: 1047
# 
# Revision: 4
# Processed by: cddbd v1.5.2PL0 Copyright (c) Steve Scherf et al.
# Submitted via: fre:ac v1.0.31
# 
DISCID=8904150a
DTITLE=Buck Owens - Buck Owens - Backersfield Buckaroo
DYEAR=2009
DGENRE=Country
TTITLE0=You're For Me
TTITLE1=Blue Love
TTITLE2=Rhythm and Booze
TTITLE3=After The Dance
TTITLE4=House Down The Block
TTITLE5=That Ain't Right Baby
TTITLE6=Why Don't Mommy Stay WIth Daddy And Me
TTITLE7=Please Don't Take Her From Me
TTITLE8=Down On The Corner Of Love
TTITLE9=Three Dimension Love
EXTD=
EXTT0=
EXTT1=
EXTT2=
EXTT3=
EXTT4=
EXTT5=
EXTT6=
EXTT7=
EXTT8=
EXTT9=
PLAYORDER=
